<?xml version="1.0" encoding="UTF-8" standalone="no"?>
<!-- Generator: Gravit.io -->

<svg
   style="isolation:isolate"
   viewBox="0 0 143.028 174.53501"
   width="143.028"
   height="174.535"
   version="1.1"
   id="svg2"
   xmlns="http://www.w3.org/2000/svg"
   xmlns:svg="http://www.w3.org/2000/svg">
  <defs
     id="defs2" />
  <g
     id="g2"
     transform="translate(-70.218,-54.465)">
    <g
       id="kni-simple-shape">
      <g
         id="g3761">
        <path
           d="M 70.218,110.587 V 54.465 h 8.419 8.418 v 23.364 23.364 l 2.105,-0.337 c 15.504,-2.484 28.135,-19.477 29.133,-39.197 l 0.364,-7.194 h 8.418 8.418 l -0.331,7.716 c -0.86,20.012 -9.646,37.036 -24.115,46.723 q -0.609,0.407 -2.439,1.683 1.769,1.236 2.439,1.684 c 3.695,2.474 11.243,10.097 14.012,14.152 l 2.685,3.933 0.327,-14.795 c 0.837,-37.914 22.344,-61.096 56.68,-61.096 h 7.815 v 56.122 56.123 h -8.418 -8.419 v -47.216 l -0.134,-47.217 -1.916,0.333 c -8.717,1.414 -19.925,10.795 -24.924,20.86 -3.788,7.626 -3.873,8.562 -3.884,42.793 l -0.009,30.447 h -13.103 -13.102 l -0.373,-7.156 c -1.056,-20.276 -16.373,-39.292 -31.117,-39.42 -0.244,0.212 0.198,5.243 -0.112,23.285 v 23.291 h -8.418 -8.419 z m 126.191,0 V 54.465 h 8.419 8.418 v 56.122 56.123 h -8.418 -8.419 z"
           fill="#000000"
           id="path1" />
      </g>
    </g>
    <g
       id="null">
      <path
         d="m 73.887,214.473 v 14.273 h -2.672 v -14.273 z m 12.109,14.273 h -2.377 l -4.409,-7.863 v 0 q -0.061,-0.112 -0.168,-0.33 v 0 0 q -0.106,-0.219 -0.218,-0.442 v 0 0 q -0.122,-0.264 -0.264,-0.559 v 0 l -0.082,0.061 v 0 q 0.011,0.234 0.021,0.457 v 0 0 q 0.01,0.193 0.015,0.391 v 0 0 q 0.005,0.199 0.005,0.341 v 0 7.944 h -2.347 v -14.273 h 2.347 l 4.409,7.863 v 0 q 0.081,0.142 0.198,0.365 v 0 0 q 0.117,0.224 0.219,0.437 v 0 0 q 0.111,0.254 0.233,0.529 v 0 l 0.061,-0.061 v 0 q -0.01,-0.275 -0.01,-0.508 v 0 0 q -0.01,-0.203 -0.01,-0.397 v 0 0 q 0,-0.193 0,-0.284 v 0 -7.944 h 2.377 z m 5.151,0 h -2.662 v -14.273 h 8.381 v 2.377 h -5.719 v 3.596 h 4.886 v 2.367 h -4.886 z m 13.145,-14.527 v 0 0 q 1.382,0 2.484,0.447 v 0 0 q 1.102,0.447 1.869,1.361 v 0 0 q 0.767,0.914 1.174,2.306 v 0 0 q 0.406,1.392 0.406,3.281 v 0 0 q 0,1.89 -0.406,3.277 v 0 0 q -0.407,1.386 -1.174,2.301 v 0 0 q -0.767,0.914 -1.869,1.361 v 0 0 Q 105.674,229 104.292,229 v 0 0 q -1.381,0 -2.479,-0.447 v 0 0 q -1.097,-0.447 -1.864,-1.361 v 0 0 q -0.767,-0.915 -1.173,-2.301 v 0 0 q -0.406,-1.387 -0.406,-3.277 v 0 0 q 0,-1.889 0.406,-3.281 v 0 0 q 0.406,-1.392 1.173,-2.306 v 0 0 q 0.767,-0.914 1.864,-1.361 v 0 0 q 1.098,-0.447 2.479,-0.447 z m 0,2.296 v 0 0 q -0.792,0 -1.392,0.315 v 0 0 q -0.599,0.315 -0.995,0.904 v 0 0 q -0.396,0.589 -0.594,1.437 v 0 0 q -0.199,0.849 -0.199,1.915 v 0 1.047 0 q 0,1.066 0.199,1.915 v 0 0 q 0.198,0.848 0.594,1.437 v 0 0 q 0.396,0.589 0.995,0.904 v 0 0 q 0.6,0.315 1.392,0.315 v 0 0 q 0.793,0 1.392,-0.315 v 0 0 q 0.599,-0.315 1.001,-0.904 v 0 0 q 0.401,-0.589 0.599,-1.437 v 0 0 q 0.198,-0.849 0.198,-1.915 v 0 -1.047 0 q 0,-1.066 -0.198,-1.915 v 0 0 q -0.198,-0.848 -0.599,-1.437 v 0 0 q -0.402,-0.589 -1.001,-0.904 v 0 0 q -0.599,-0.315 -1.392,-0.315 z m 13.318,6.278 h -2.763 v 5.953 h -2.661 v -14.273 h 5.973 v 0 q 1.077,0 1.895,0.305 v 0 0 q 0.817,0.304 1.366,0.848 v 0 0 q 0.549,0.543 0.828,1.29 v 0 0 q 0.279,0.747 0.279,1.631 v 0 0 q 0,0.65 -0.167,1.219 v 0 0 q -0.168,0.568 -0.478,1.036 v 0 0 q -0.31,0.467 -0.751,0.828 v 0 0 q -0.442,0.36 -1.001,0.584 v 0 l 2.753,6.532 h -2.895 z m 0.275,-5.943 h -3.038 v 3.596 h 2.936 v 0 q 0.975,0 1.422,-0.503 v 0 0 q 0.447,-0.503 0.447,-1.396 v 0 0 q 0,-0.783 -0.421,-1.24 v 0 0 q -0.422,-0.457 -1.346,-0.457 z m 18.469,11.896 h -2.449 v -9.092 0 q 0,-0.234 0.016,-0.625 v 0 0 q 0.015,-0.391 0.035,-0.757 v 0 0 q 0.02,-0.426 0.051,-0.904 v 0 h -0.081 l -2.499,11.378 h -2.307 l -2.519,-11.378 h -0.081 v 0 q 0.02,0.498 0.051,0.935 v 0 0 q 0.01,0.183 0.015,0.381 v 0 0 q 0.005,0.198 0.015,0.381 v 0 0 q 0.01,0.182 0.015,0.335 v 0 0 q 0.005,0.152 0.005,0.254 v 0 9.092 h -2.265 v -14.273 h 3.738 l 1.768,7.863 v 0 q 0.041,0.172 0.086,0.406 v 0 0 q 0.046,0.234 0.092,0.493 v 0 0 q 0.046,0.259 0.096,0.538 v 0 0 q 0.051,0.28 0.092,0.534 v 0 0 q 0.101,0.609 0.203,1.259 v 0 h 0.081 v 0 q 0.082,-0.68 0.163,-1.3 v 0 0 q 0.03,-0.264 0.071,-0.538 v 0 0 q 0.041,-0.275 0.081,-0.534 v 0 0 q 0.041,-0.259 0.081,-0.482 v 0 0 q 0.041,-0.224 0.082,-0.376 v 0 l 1.747,-7.863 h 3.617 z m 8.807,-14.273 4.592,14.273 h -2.722 l -0.874,-2.804 h -5.262 l -0.854,2.804 h -2.58 l 4.602,-14.273 z m -1.584,2.397 h -0.082 v 0 q -0.061,0.376 -0.132,0.722 v 0 0 q -0.061,0.294 -0.132,0.629 v 0 0 q -0.071,0.336 -0.152,0.579 v 0 l -1.453,4.765 h 3.799 l -1.432,-4.765 v 0 q -0.081,-0.284 -0.162,-0.619 v 0 0 q -0.082,-0.335 -0.133,-0.63 v 0 0 q -0.071,-0.335 -0.121,-0.681 z m 16.284,-2.397 v 2.377 h -3.535 v 11.896 h -2.662 V 216.85 h -3.535 v -2.377 z m 11.713,0 -4.348,8.889 v 5.384 h -2.661 v -5.384 l -4.369,-8.889 H 163 l 2.916,6.268 h 0.081 l 2.895,-6.268 z m 3.932,0 v 7.304 l 5.222,-7.304 h 2.976 l -4.226,5.801 4.348,8.472 h -2.997 l -3.098,-6.37 -2.225,2.733 v 3.637 h -2.682 v -14.273 z m 15.015,-0.254 v 0 0 q 1.381,0 2.484,0.447 v 0 0 q 1.102,0.447 1.869,1.361 v 0 0 q 0.767,0.914 1.173,2.306 v 0 0 q 0.406,1.392 0.406,3.281 v 0 0 q 0,1.89 -0.406,3.277 v 0 0 q -0.406,1.386 -1.173,2.301 v 0 0 q -0.767,0.914 -1.869,1.361 v 0 0 Q 191.902,229 190.521,229 v 0 0 q -1.382,0 -2.479,-0.447 v 0 0 q -1.097,-0.447 -1.864,-1.361 v 0 0 q -0.767,-0.915 -1.174,-2.301 v 0 0 q -0.406,-1.387 -0.406,-3.277 v 0 0 q 0,-1.889 0.406,-3.281 v 0 0 q 0.407,-1.392 1.174,-2.306 v 0 0 q 0.767,-0.914 1.864,-1.361 v 0 0 q 1.097,-0.447 2.479,-0.447 z m 0,2.296 v 0 0 q -0.793,0 -1.392,0.315 v 0 0 q -0.599,0.315 -0.996,0.904 v 0 0 q -0.396,0.589 -0.594,1.437 v 0 0 q -0.198,0.849 -0.198,1.915 v 0 1.047 0 q 0,1.066 0.198,1.915 v 0 0 q 0.198,0.848 0.594,1.437 v 0 0 q 0.397,0.589 0.996,0.904 v 0 0 q 0.599,0.315 1.392,0.315 v 0 0 q 0.792,0 1.391,-0.315 v 0 0 q 0.6,-0.315 1.001,-0.904 v 0 0 q 0.401,-0.589 0.599,-1.437 v 0 0 q 0.199,-0.849 0.199,-1.915 v 0 -1.047 0 q 0,-1.066 -0.199,-1.915 v 0 0 q -0.198,-0.848 -0.599,-1.437 v 0 0 q -0.401,-0.589 -1.001,-0.904 v 0 0 q -0.599,-0.315 -1.391,-0.315 z m 2.865,-6.146 0.02,0.061 -2.245,2.692 h -2.063 l 1.788,-2.753 z m 19.86,4.104 -3.098,14.273 h -2.682 l -1.941,-9.092 v 0 q -0.061,-0.274 -0.111,-0.62 v 0 0 q -0.051,-0.345 -0.092,-0.66 v 0 0 q -0.04,-0.366 -0.081,-0.742 v 0 h -0.092 v 0 q -0.06,0.407 -0.101,0.782 v 0 0 q -0.051,0.326 -0.092,0.671 v 0 0 q -0.04,0.345 -0.091,0.569 v 0 l -1.92,9.092 h -2.682 l -3.098,-14.273 h 2.641 l 1.707,8.777 v 0 q 0.05,0.234 0.096,0.579 v 0 0 q 0.046,0.346 0.086,0.66 v 0 0 q 0.041,0.376 0.092,0.762 v 0 h 0.081 v 0 q 0.041,-0.396 0.081,-0.772 v 0 0 q 0.041,-0.325 0.087,-0.66 v 0 0 q 0.045,-0.335 0.096,-0.569 v 0 l 1.727,-8.777 h 3.017 l 1.707,8.777 v 0 q 0.041,0.213 0.092,0.554 v 0 0 q 0.05,0.34 0.091,0.665 v 0 0 q 0.041,0.376 0.091,0.782 v 0 h 0.082 l 0.081,-0.731 v 0 q 0.041,-0.305 0.086,-0.655 v 0 0 q 0.046,-0.351 0.107,-0.615 v 0 l 1.747,-8.777 z m -78.437,-9.6 h -2.377 l -4.409,-7.863 v 0 q -0.061,-0.112 -0.167,-0.33 v 0 0 q -0.107,-0.219 -0.219,-0.442 v 0 0 q -0.122,-0.265 -0.264,-0.559 v 0 l -0.081,0.061 v 0 q 0.01,0.233 0.02,0.457 v 0 0 q 0.01,0.193 0.015,0.391 v 0 0 q 0.006,0.198 0.006,0.34 v 0 7.945 h -2.347 v -14.274 h 2.347 l 4.408,7.863 v 0 q 0.082,0.143 0.199,0.366 v 0 0 q 0.116,0.224 0.218,0.437 v 0 0 q 0.112,0.254 0.234,0.528 v 0 l 0.061,-0.061 v 0 q -0.011,-0.274 -0.011,-0.508 v 0 0 q -0.01,-0.203 -0.01,-0.396 v 0 0 q 0,-0.193 0,-0.284 v 0 -7.945 h 2.377 z m 8.94,-14.274 4.592,14.274 h -2.723 l -0.873,-2.804 h -5.262 l -0.854,2.804 h -2.58 l 4.602,-14.274 z m -1.585,2.398 h -0.081 v 0 q -0.061,0.376 -0.132,0.721 v 0 0 q -0.061,0.295 -0.132,0.63 v 0 0 q -0.071,0.335 -0.152,0.579 v 0 l -1.453,4.765 h 3.799 l -1.432,-4.765 v 0 q -0.081,-0.284 -0.163,-0.62 v 0 0 q -0.081,-0.335 -0.132,-0.629 v 0 0 q -0.071,-0.336 -0.122,-0.681 z m 7.467,7.406 v -9.804 h 2.662 v 9.712 0 q 0,1.24 0.579,1.88 v 0 0 q 0.579,0.64 1.646,0.64 v 0 0 q 1.066,0 1.656,-0.64 v 0 0 q 0.589,-0.64 0.589,-1.88 v 0 -9.712 h 2.672 v 9.804 0 q 0,1.158 -0.341,2.042 v 0 0 q -0.34,0.884 -0.975,1.478 v 0 0 q -0.635,0.594 -1.544,0.899 v 0 0 q -0.909,0.305 -2.057,0.305 v 0 0 q -1.148,0 -2.052,-0.305 v 0 0 q -0.905,-0.305 -1.534,-0.899 v 0 0 q -0.63,-0.594 -0.966,-1.478 v 0 0 q -0.335,-0.884 -0.335,-2.042 z m 14.974,-9.804 v 7.305 l 5.222,-7.305 h 2.977 l -4.226,5.801 4.348,8.473 h -2.997 l -3.099,-6.37 -2.225,2.733 v 3.637 h -2.682 v -14.274 z m 15.015,-0.254 v 0 0 q 1.382,0 2.484,0.447 v 0 0 q 1.102,0.447 1.869,1.362 v 0 0 q 0.767,0.914 1.174,2.306 v 0 0 q 0.406,1.392 0.406,3.281 v 0 0 q 0,1.89 -0.406,3.276 v 0 0 q -0.407,1.387 -1.174,2.301 v 0 0 q -0.767,0.915 -1.869,1.362 v 0 0 q -1.102,0.447 -2.484,0.447 v 0 0 q -1.381,0 -2.479,-0.447 v 0 0 q -1.097,-0.447 -1.864,-1.362 v 0 0 q -0.767,-0.914 -1.173,-2.301 v 0 0 q -0.406,-1.386 -0.406,-3.276 v 0 0 q 0,-1.889 0.406,-3.281 v 0 0 q 0.406,-1.392 1.173,-2.306 v 0 0 q 0.767,-0.915 1.864,-1.362 v 0 0 q 1.098,-0.447 2.479,-0.447 z m 0,2.296 v 0 0 q -0.792,0 -1.392,0.315 v 0 0 q -0.599,0.315 -0.995,0.904 v 0 0 q -0.396,0.59 -0.594,1.438 v 0 0 q -0.199,0.848 -0.199,1.915 v 0 1.046 0 q 0,1.067 0.199,1.915 v 0 0 q 0.198,0.848 0.594,1.438 v 0 0 q 0.396,0.589 0.995,0.904 v 0 0 q 0.6,0.315 1.392,0.315 v 0 0 q 0.793,0 1.392,-0.315 v 0 0 q 0.599,-0.315 1.001,-0.904 v 0 0 q 0.401,-0.59 0.599,-1.438 v 0 0 q 0.198,-0.848 0.198,-1.915 v 0 -1.046 0 q 0,-1.067 -0.198,-1.915 v 0 0 q -0.198,-0.848 -0.599,-1.438 v 0 0 q -0.402,-0.589 -1.001,-0.904 v 0 0 q -0.599,-0.315 -1.392,-0.315 z m 22.726,-2.042 -3.099,14.274 h -2.682 l -1.94,-9.093 v 0 q -0.061,-0.274 -0.112,-0.619 v 0 0 q -0.051,-0.346 -0.091,-0.661 v 0 0 q -0.041,-0.365 -0.082,-0.741 v 0 h -0.091 v 0 q -0.061,0.406 -0.102,0.782 v 0 0 q -0.05,0.325 -0.091,0.671 v 0 0 q -0.041,0.345 -0.091,0.568 v 0 l -1.92,9.093 h -2.682 l -3.099,-14.274 h 2.641 l 1.707,8.778 v 0 q 0.051,0.233 0.097,0.579 v 0 0 q 0.045,0.345 0.086,0.66 v 0 0 q 0.041,0.376 0.091,0.762 v 0 h 0.082 v 0 q 0.04,-0.396 0.081,-0.772 v 0 0 q 0.041,-0.325 0.086,-0.66 v 0 0 q 0.046,-0.336 0.097,-0.569 v 0 l 1.727,-8.778 h 3.017 l 1.707,8.778 v 0 q 0.04,0.213 0.091,0.553 v 0 0 q 0.051,0.341 0.092,0.666 v 0 0 q 0.04,0.376 0.091,0.782 v 0 h 0.081 l 0.082,-0.731 v 0 q 0.04,-0.305 0.086,-0.656 v 0 0 q 0.046,-0.35 0.107,-0.614 v 0 l 1.747,-8.778 z m 10.484,14.274 h -9.215 v -14.274 h 9.093 v 2.378 h -6.431 v 3.403 h 5.516 v 2.377 h -5.516 v 3.749 h 6.553 z M 73.633,190.599 v 7.305 l 5.221,-7.305 h 2.977 l -4.226,5.801 4.348,8.473 h -2.997 l -3.099,-6.37 -2.224,2.733 v 3.637 h -2.682 v -14.274 z m 15.015,-0.254 v 0 0 q 1.381,0 2.483,0.447 v 0 0 q 1.103,0.447 1.87,1.362 v 0 0 q 0.767,0.914 1.173,2.306 v 0 0 q 0.406,1.392 0.406,3.281 v 0 0 q 0,1.89 -0.406,3.276 v 0 0 q -0.406,1.387 -1.173,2.301 v 0 0 q -0.767,0.915 -1.87,1.362 v 0 0 q -1.102,0.447 -2.483,0.447 v 0 0 q -1.382,0 -2.479,-0.447 v 0 0 q -1.097,-0.447 -1.864,-1.362 v 0 0 q -0.767,-0.914 -1.174,-2.301 v 0 0 q -0.406,-1.386 -0.406,-3.276 v 0 0 q 0,-1.889 0.406,-3.281 v 0 0 q 0.407,-1.392 1.174,-2.306 v 0 0 q 0.767,-0.915 1.864,-1.362 v 0 0 q 1.097,-0.447 2.479,-0.447 z m 0,2.296 v 0 0 q -0.793,0 -1.392,0.315 v 0 0 q -0.6,0.315 -0.996,0.904 v 0 0 q -0.396,0.59 -0.594,1.438 v 0 0 q -0.198,0.848 -0.198,1.915 v 0 1.046 0 q 0,1.067 0.198,1.915 v 0 0 q 0.198,0.848 0.594,1.438 v 0 0 q 0.396,0.589 0.996,0.904 v 0 0 q 0.599,0.315 1.392,0.315 v 0 0 q 0.792,0 1.391,-0.315 v 0 0 q 0.6,-0.315 1.001,-0.904 v 0 0 q 0.401,-0.59 0.599,-1.438 v 0 0 q 0.198,-0.848 0.198,-1.915 v 0 -1.046 0 q 0,-1.067 -0.198,-1.915 v 0 0 Q 91.441,194.45 91.04,193.86 v 0 0 q -0.401,-0.589 -1.001,-0.904 v 0 0 q -0.599,-0.315 -1.391,-0.315 z m 12.972,0.793 v 2.011 l -2.417,2.144 v 4.785 h 6.034 v 2.499 h -8.696 v -4.927 l -1.25,1.097 v -1.971 l 1.25,-1.107 v -7.366 h 2.662 v 4.999 z m 10.728,-3.089 v 0 0 q 1.382,0 2.484,0.447 v 0 0 q 1.102,0.447 1.869,1.362 v 0 0 q 0.767,0.914 1.174,2.306 v 0 0 q 0.406,1.392 0.406,3.281 v 0 0 q 0,1.89 -0.406,3.276 v 0 0 q -0.407,1.387 -1.174,2.301 v 0 0 q -0.767,0.915 -1.869,1.362 v 0 0 q -1.102,0.447 -2.484,0.447 v 0 0 q -1.381,0 -2.479,-0.447 v 0 0 q -1.097,-0.447 -1.864,-1.362 v 0 0 q -0.767,-0.914 -1.173,-2.301 v 0 0 q -0.406,-1.386 -0.406,-3.276 v 0 0 q 0,-1.889 0.406,-3.281 v 0 0 q 0.406,-1.392 1.173,-2.306 v 0 0 q 0.767,-0.915 1.864,-1.362 v 0 0 q 1.098,-0.447 2.479,-0.447 z m 0,2.296 v 0 0 q -0.792,0 -1.392,0.315 v 0 0 q -0.599,0.315 -0.995,0.904 v 0 0 q -0.396,0.59 -0.594,1.438 v 0 0 q -0.199,0.848 -0.199,1.915 v 0 1.046 0 q 0,1.067 0.199,1.915 v 0 0 q 0.198,0.848 0.594,1.438 v 0 0 q 0.396,0.589 0.995,0.904 v 0 0 q 0.6,0.315 1.392,0.315 v 0 0 q 0.793,0 1.392,-0.315 v 0 0 q 0.599,-0.315 1.001,-0.904 v 0 0 q 0.401,-0.59 0.599,-1.438 v 0 0 q 0.198,-0.848 0.198,-1.915 v 0 -1.046 0 q 0,-1.067 -0.198,-1.915 v 0 0 q -0.198,-0.848 -0.599,-1.438 v 0 0 q -0.402,-0.589 -1.001,-0.904 v 0 0 q -0.599,-0.315 -1.392,-0.315 z"
         fill-rule="evenodd"
         fill="#000000"
         id="path2" />
    </g>
  </g>
</svg>
